# xmcd
#
# Track frame offsets: 
#        183
#        10395
#        19905
#        33608
#        44743
#        55035
#        64880
#        76568
#        87153
#        100668
#        113290
#        123173
#        134445
#        145280
#        156518
#        169958
#        181078
#        192220
#        203160
#        218035
#        231215
#        244225
#        256388
#        266053
#        276760
#        288620
#        299433
#        309560
#        321730
#        332358
#
# Disc length: 4610 seconds
#
# Revision: 0
# Processed by: cddbd v1.5.2PL0 Copyright (c) Steve Scherf et al.
# Submitted via: ExactAudioCopy v0.99pb3
#
DISCID=c012001e
DTITLE=Various Artist - Rivertown Blues Plus!
DYEAR=1988
DGENRE=Blues
TTITLE0=Don Hines - I'm So Glad
TTITLE1=Don Hines - Baby, Tell It Like It Is
TTITLE2=Don Hines - Stormy Monday
TTITLE3=Don Hines - Please Accept My Love
TTITLE4=Don Hines - You Had To Pay
TTITLE5=Don Hines - Trouble Is My Name
TTITLE6=Big Amos Patton - He Won't Bite Me Twice
TTITLE7=Big Amos Patton - Move With Me Baby
TTITLE8=Big Amos Patton - Going To Vietnam
TTITLE9=Big Amos Patton - I'm Gone
TTITLE10=Big Amos Patton - Dog Man
TTITLE11=Big Amos Patton - You're Too Young
TTITLE12=Big Lucky Carter - Stop Arguin' Over Me
TTITLE13=Big Lucky Carter - Miss Betty Green
TTITLE14=Big Lucky Carter - Goofer Dust
TTITLE15=Big Lucky Carter - I've Been Hurt
TTITLE16=Big Lucky Carter - Please Don't Leave
TTITLE17=Big Lucky Carter - You'd Better Mind
TTITLE18=John Lee Carter - Please Mr. Foreman
TTITLE19=John Lee Carter - As The Years Go Passing By
TTITLE20=John Lee Carter - I Can't Stand It
TTITLE21=John Lee Carter - Let Me Know
TTITLE22=Don Bryant - Don't Turn Your Back On Me
TTITLE23=Don Bryant - The Call Of Distress
TTITLE24=Don Bryant - Is That Asking Too Much
TTITLE25=Don Bryant - Is There Something On Your Mind
TTITLE26=Willie Mitchell - Prayer Meeting
TTITLE27=Gene Miller - I was Wrong
TTITLE28=Gene Miller - What Do You Mean
TTITLE29=George Jackson - Aretha, Sing One For Me
EXTD=
EXTT0=
EXTT1=
EXTT2=
EXTT3=
EXTT4=
EXTT5=
EXTT6=
EXTT7=
EXTT8=
EXTT9=
EXTT10=
EXTT11=
EXTT12=
EXTT13=
EXTT14=
EXTT15=
EXTT16=
EXTT17=
EXTT18=
EXTT19=
EXTT20=
EXTT21=
EXTT22=
EXTT23=
EXTT24=
EXTT25=
EXTT26=
EXTT27=
EXTT28=
EXTT29=
PLAYORDER=
